# xmcd
#
# Track frame offsets:
#	150
#	14447
#	27525
#	37295
#	47030
#	57461
#	73953
#	85819
#	101335
#	117088
#	128968
#
# Disc length: 2037 seconds
#
# Revision: 0
# Processed by: cddbd v1.5.2PL0 Copyright (c) Steve Scherf et al.
# Submitted via: dBpowerAMP V4.0
#
DISCID=9e07f30b
DTITLE=Robert Horton - A Man Called Shenandoah
DYEAR=1963
DGENRE=Country
TTITLE0=High Noon (Do Not Forsake Me)
TTITLE1=Riders In The Sky (A Cowboy Legend)
TTITLE2=King Of The Road
TTITLE3=Wand'rin Star (From Paint Your Wagon)
TTITLE4=They Came To Cordura
TTITLE5=Sail Ho! (The Mirage Song)
TTITLE6=Shenandoah
TTITLE7=Julie
TTITLE8=They Call The Wind Maria (From Paint Your Wagon)
TTITLE9=Houston
TTITLE10=El Paso
EXTD=
EXTT0=
EXTT1=
EXTT2=
EXTT3=
EXTT4=
EXTT5=
EXTT6=
EXTT7=
EXTT8=
EXTT9=
EXTT10=
PLAYORDER=
